<svg clip-rule="evenodd" fill-rule="evenodd" stroke-linecap="round" stroke-linejoin="round" viewBox="0 0 1269 231" xmlns="http://www.w3.org/2000/svg"><g transform="matrix(2.84236 0 0 2.84236 -1355.81 -446.251)"><g fill-rule="nonzero"><path d="m579.904 190.452v-8.862h-7.592v27.612h4.785v4.59h-15.039v-4.59h4.687v-27.612h-7.544v8.862h-4.541v-13.452h29.785v13.452z"/><path d="m596.652 179.49c0 .83-.301 1.546-.903 2.149-.602.602-1.318.903-2.148.903s-1.539-.301-2.124-.903c-.586-.603-.879-1.319-.879-2.149s.293-1.546.879-2.148c.585-.602 1.294-.904 2.124-.904.862 0 1.586.293 2.172.879s.879 1.311.879 2.173z"/><path d="m600.266 209.3v4.492h-12.964v-4.492h4.004v-16.651h-4.004v-4.516h9.057v21.167z"/><path d="m607.126 209.3v-16.651h-4.321v-4.516h9.35v3.247c3.011-2.393 5.965-3.589 8.863-3.589 2.962 0 4.996 1.335 6.103 4.004 3.288-2.669 6.388-4.004 9.302-4.004 2.067 0 3.715.61 4.944 1.831s1.843 3.093 1.843 5.615v14.063h4.492v4.492h-9.497v-16.26c0-1.123-.057-2.034-.171-2.734s-.411-1.294-.891-1.782c-.48-.489-1.241-.733-2.283-.733-.927 0-2.01.277-3.247.83-1.237.554-2.539 1.384-3.906 2.491v13.696h4.346v4.492h-9.4v-16.895c0-1.643-.248-2.823-.744-3.54-.497-.716-1.315-1.074-2.454-1.074-1.855 0-4.289 1.107-7.3 3.321v13.696h4.517v4.492h-14.16v-4.492z"/><path d="m677.463 202.244h-21.509c.309 2.458 1.261 4.399 2.857 5.823 1.595 1.424 3.548 2.136 5.859 2.136 1.693 0 3.263-.35 4.712-1.05 1.448-.7 2.661-1.774 3.638-3.222l4.443 2.002c-1.4 2.181-3.235 3.829-5.505 4.943-2.271 1.115-4.741 1.673-7.41 1.673-2.767 0-5.225-.578-7.373-1.734-2.149-1.155-3.821-2.766-5.017-4.834-1.197-2.067-1.795-4.394-1.795-6.982 0-2.572.59-4.891 1.77-6.958s2.796-3.682 4.846-4.846c2.051-1.164 4.314-1.746 6.788-1.746 2.701 0 5.057.598 7.067 1.795 2.011 1.196 3.593 2.905 4.749 5.127 1.156 2.221 1.782 4.846 1.88 7.873zm-13.599-10.596c-1.904 0-3.572.639-5.005 1.917-1.432 1.278-2.352 2.966-2.758 5.066h16.064c-.472-2.1-1.473-3.788-3.003-5.066s-3.296-1.917-5.298-1.917z"/><path d="m693.82 209.3v4.492h-13.501v-4.492h4.541v-27.857h-4.541v-4.443h9.595v32.3z"/><path d="m724.411 202.244h-21.509c.31 2.458 1.262 4.399 2.857 5.823s3.548 2.136 5.859 2.136c1.693 0 3.264-.35 4.712-1.05 1.449-.7 2.661-1.774 3.638-3.222l4.443 2.002c-1.4 2.181-3.235 3.829-5.505 4.943-2.271 1.115-4.741 1.673-7.41 1.673-2.767 0-5.225-.578-7.373-1.734-2.148-1.155-3.821-2.766-5.017-4.834-1.196-2.067-1.794-4.394-1.794-6.982 0-2.572.59-4.891 1.77-6.958s2.795-3.682 4.846-4.846 4.313-1.746 6.787-1.746c2.702 0 5.058.598 7.068 1.795 2.01 1.196 3.593 2.905 4.748 5.127 1.156 2.221 1.782 4.846 1.88 7.873zm-13.599-10.596c-1.904 0-3.572.639-5.004 1.917-1.433 1.278-2.352 2.966-2.759 5.066h16.064c-.472-2.1-1.473-3.788-3.003-5.066s-3.296-1.917-5.298-1.917z"/><path d="m743.771 189.231v-1.098h4.395v8.52h-4.395v-1.562c-1.464-2.1-3.466-3.15-6.005-3.15-1.335 0-2.426.293-3.272.879s-1.269 1.343-1.269 2.271c0 .83.321 1.481.964 1.953s2.087.887 4.333 1.245l3.394.659c5.062.928 7.593 3.41 7.593 7.447 0 2.36-.916 4.256-2.747 5.688s-4.26 2.148-7.287 2.148c-1.205 0-2.389-.175-3.553-.524-1.163-.35-2.136-.786-2.917-1.307v1.392h-4.492v-8.789h4.492v.879c.244 1.237.932 2.23 2.063 2.978 1.131.749 2.445 1.123 3.943 1.123 1.644 0 2.938-.289 3.882-.866.944-.578 1.416-1.437 1.416-2.576 0-.83-.375-1.453-1.123-1.868-.749-.415-2.255-.842-4.517-1.281l-2.612-.562c-2.588-.521-4.484-1.416-5.689-2.685-1.204-1.27-1.806-2.889-1.806-4.859 0-1.595.443-2.958 1.33-4.089s2.022-1.982 3.406-2.551c1.383-.57 2.807-.855 4.272-.855 2.458 0 4.525.48 6.201 1.44z"/><path d="m768.869 189.231v-1.098h4.395v8.52h-4.395v-1.562c-1.465-2.1-3.467-3.15-6.006-3.15-1.334 0-2.425.293-3.271.879-.847.586-1.27 1.343-1.27 2.271 0 .83.322 1.481.965 1.953s2.087.887 4.333 1.245l3.394.659c5.062.928 7.592 3.41 7.592 7.447 0 2.36-.915 4.256-2.746 5.688s-4.26 2.148-7.288 2.148c-1.204 0-2.388-.175-3.552-.524-1.164-.35-2.136-.786-2.917-1.307v1.392h-4.493v-8.789h4.493v.879c.244 1.237.931 2.23 2.063 2.978 1.131.749 2.445 1.123 3.942 1.123 1.644 0 2.938-.289 3.882-.866.944-.578 1.416-1.437 1.416-2.576 0-.83-.374-1.453-1.123-1.868-.748-.415-2.254-.842-4.516-1.281l-2.613-.562c-2.588-.521-4.484-1.416-5.688-2.685-1.205-1.27-1.807-2.889-1.807-4.859 0-1.595.444-2.958 1.331-4.089s2.022-1.982 3.406-2.551c1.383-.57 2.807-.855 4.272-.855 2.458 0 4.525.48 6.201 1.44z"/><path d="m810.104 177h12.745v4.59h-4.444v27.612h4.444v4.59h-13.843v-4.59h4.346v-27.612l-12.647 32.593h-1.099l-12.548-32.593v27.612h4.052v4.59h-13.061v-4.59h4.468v-27.612h-4.468v-4.59h12.622l9.692 25.195z" fill="#9e2424"/><path d="m837.814 209.837c2.263 0 4.712-1.099 7.349-3.296v-13.892h-4.541v-4.516h9.595v21.167h4.394v4.492h-9.448v-2.954c-2.962 2.262-5.778 3.393-8.447 3.393-2.409 0-4.187-.716-5.335-2.148-1.147-1.432-1.721-3.809-1.721-7.129v-12.305h-3.589v-4.516h8.643v17.871c0 1.318.24 2.287.72 2.905.48.619 1.274.928 2.38.928z" fill="#9e2424"/><path d="m873.166 189.231v-1.098h4.395v8.52h-4.395v-1.562c-1.465-2.1-3.467-3.15-6.006-3.15-1.334 0-2.425.293-3.271.879-.847.586-1.27 1.343-1.27 2.271 0 .83.322 1.481.964 1.953.643.472 2.088.887 4.334 1.245l3.394.659c5.061.928 7.592 3.41 7.592 7.447 0 2.36-.915 4.256-2.746 5.688s-4.261 2.148-7.288 2.148c-1.204 0-2.388-.175-3.552-.524-1.164-.35-2.136-.786-2.918-1.307v1.392h-4.492v-8.789h4.492v.879c.245 1.237.932 2.23 2.063 2.978 1.132.749 2.446 1.123 3.943 1.123 1.644 0 2.938-.289 3.882-.866.944-.578 1.416-1.437 1.416-2.576 0-.83-.374-1.453-1.123-1.868s-2.254-.842-4.517-1.281l-2.612-.562c-2.588-.521-4.484-1.416-5.688-2.685-1.205-1.27-1.807-2.889-1.807-4.859 0-1.595.444-2.958 1.331-4.089s2.022-1.982 3.405-2.551c1.384-.57 2.808-.855 4.273-.855 2.458 0 4.525.48 6.201 1.44z" fill="#9e2424"/><path d="m891.403 179.49c0 .83-.301 1.546-.903 2.149-.602.602-1.318.903-2.148.903-.831 0-1.539-.301-2.124-.903-.586-.603-.879-1.319-.879-2.149s.293-1.546.879-2.148c.585-.602 1.293-.904 2.124-.904.862 0 1.586.293 2.172.879s.879 1.311.879 2.173z" fill="#9e2424"/><path d="m895.017 209.3v4.492h-12.964v-4.492h4.004v-16.651h-4.004v-4.516h9.057v21.167z" fill="#9e2424"/><path d="m917.819 189.988v-1.855h4.493v9.717h-4.493c-.195-1.872-.944-3.3-2.246-4.285s-2.807-1.477-4.516-1.477c-1.465 0-2.779.391-3.943 1.172s-2.063 1.839-2.698 3.174c-.635 1.334-.952 2.791-.952 4.37 0 2.685.716 4.878 2.148 6.579 1.433 1.701 3.321 2.552 5.664 2.552 3.63 0 6.193-1.685 7.691-5.054l4.199 2.002c-2.36 5.11-6.396 7.666-12.109 7.666-2.556 0-4.826-.602-6.812-1.807-1.986-1.204-3.52-2.856-4.602-4.956-1.082-2.099-1.623-4.427-1.623-6.982 0-2.507.549-4.785 1.647-6.836 1.099-2.051 2.609-3.65 4.529-4.798 1.921-1.147 4.061-1.721 6.421-1.721 2.8 0 5.2.847 7.202 2.539z" fill="#9e2424"/></g><g transform="matrix(.421875 0 0 .421875 477 157)"><path d="m0 0h192v192h-192z" fill="none"/><circle cx="96" cy="96" fill="#9e2424" fill-opacity=".2" r="66"/><g fill="none" stroke="#9e2424" stroke-width="12"><path d="m96 60v36"/><path d="m127.2 114-31.2-18"/><path d="m53.85 74.775h-30v-30"/><path d="m49.35 142.65c12.374 12.384 29.181 19.35 46.688 19.35 36.207 0 66-29.793 66-66s-29.793-66-66-66c-17.507 0-34.314 6.966-46.688 19.35l-25.5 25.425"/></g></g></g></svg>